<svg xmlns="http://www.w3.org/2000/svg" xmlns:xlink="http://www.w3.org/1999/xlink" width="26" height="26" viewBox="0 0 26 26">
    <defs>
        <radialGradient id="b" cx="35.426%" cy="98.451%" r="121.316%" fx="35.426%" fy="98.451%">
            <stop offset="0%" stop-color="#FECE6C"/>
            <stop offset="39.507%" stop-color="#D72D7B"/>
            <stop offset="44.557%" stop-color="#D82B73"/>
            <stop offset="55.887%" stop-color="#AE31AB"/>
            <stop offset="100%" stop-color="#515CD2"/>
        </radialGradient>
        <path id="a" d="M0 13C0 5.82 5.82 0 13 0s13 5.82 13 13-5.82 13-13 13S0 20.18 0 13z"/>
        <radialGradient id="c" cx="24.672%" cy="92.325%" r="103.973%" fx="24.672%" fy="92.325%">
            <stop offset="0%" stop-color="#FED576"/>
            <stop offset="26.335%" stop-color="#F47133"/>
            <stop offset="60.907%" stop-color="#BC3081"/>
            <stop offset="100%" stop-color="#4C63D2"/>
        </radialGradient>
    </defs>
    <g fill="none" fill-rule="evenodd">
        <mask id="d" fill="#fff">
            <use xlink:href="#a"/>
        </mask>
        <use fill="url(#b)" xlink:href="#a"/>
        <path fill="url(#c)" fill-rule="nonzero" d="M5.477 0A5.465 5.465 0 0 0 0 5.477v15.046A5.465 5.465 0 0 0 5.477 26h15.046A5.465 5.465 0 0 0 26 20.523V5.477A5.465 5.465 0 0 0 20.523 0H5.477z" mask="url(#d)"/>
        <path fill="#FFF" d="M10.114 6.042c-.745.034-1.254.152-1.699.325-.46.18-.85.418-1.24.808-.39.389-.628.78-.808 1.24-.173.445-.291.954-.325 1.699C6.01 10.86 6 11.099 6 13c0 1.901.008 2.139.042 2.886.035.745.153 1.253.326 1.699.178.46.418.85.807 1.24.389.389.78.629 1.24.808.445.173.954.29 1.699.325.746.034.985.042 2.886.042 1.901 0 2.139-.008 2.886-.042.745-.034 1.254-.152 1.7-.325.46-.18.85-.419 1.239-.808.389-.39.628-.78.807-1.24.173-.446.29-.954.326-1.7.033-.746.042-.984.042-2.885 0-1.901-.009-2.14-.042-2.886-.035-.746-.153-1.254-.326-1.7-.179-.46-.418-.85-.807-1.24a3.421 3.421 0 0 0-1.24-.807c-.446-.173-.955-.29-1.7-.325C15.138 6.008 14.9 6 12.998 6c-1.898 0-2.137.008-2.884.042zm2.386.96c1.791 0 2.993.006 3.7.038.655.03 1.01.14 1.246.231.313.122.537.267.771.502.235.235.38.459.502.772.092.236.202.591.231 1.245.033.708.04.92.04 2.71 0 1.792-.007 3.022-.04 3.729-.03.654-.139 1.01-.23 1.246a2.075 2.075 0 0 1-.503.77c-.234.235-.457.38-.77.502-.237.092-.592.202-1.246.231-.708.033-1.91.04-3.7.04-1.792 0-2.005-.007-2.712-.04-.654-.03-1.01-.14-1.246-.23a2.078 2.078 0 0 1-.771-.503 2.08 2.08 0 0 1-.502-.771c-.092-.236-.202-.591-.231-1.246C7.006 15.521 7 14.291 7 12.5s.006-2.003.039-2.71c.03-.655.139-1.01.23-1.246.122-.313.268-.537.503-.772s.458-.38.771-.502c.237-.092.592-.201 1.246-.231.619-.028.859-.037 2.11-.038l.601.002zM16 9a1 1 0 1 0 2 0 1 1 0 0 0-2 0zm-7 4a4 4 0 1 0 8 0 4 4 0 0 0-8 0zm6.527-.04a2.5 2.5 0 1 1-5 0 2.5 2.5 0 0 1 5 0z" mask="url(#d)"/>
    </g>
</svg>
